<?xml version="1.0" standalone="no"?>
<!DOCTYPE svg PUBLIC "-//W3C//DTD SVG 20010904//EN"
 "http://www.w3.org/TR/2001/REC-SVG-20010904/DTD/svg10.dtd">
<svg version="1.0" xmlns="http://www.w3.org/2000/svg"
 width="500.000000pt" height="500.000000pt" viewBox="0 0 500.000000 500.000000"
 preserveAspectRatio="xMidYMid meet">

<g transform="translate(0.000000,500.000000) scale(0.100000,-0.100000)"
fill="#000000" stroke="none">
<path d="M2556 3988 c-4 -14 -36 -258 -36 -277 0 -6 6 -11 14 -11 8 0 15 16
19 41 3 22 7 43 10 45 3 3 28 2 57 -2 50 -7 52 -8 78 -60 14 -30 32 -54 39
-54 17 0 17 3 -12 60 l-25 50 24 10 c55 21 75 104 35 153 -21 28 -58 41 -146
52 -40 5 -54 4 -57 -7z m164 -47 c49 -36 32 -123 -27 -135 -15 -3 -50 -2 -78
2 -55 9 -52 1 -40 106 l7 59 56 -7 c32 -3 68 -15 82 -25z"/>
<path d="M2072 3837 c-12 -13 -22 -30 -22 -38 -1 -8 -7 -3 -14 10 -9 16 -16
20 -20 12 -10 -16 65 -211 81 -211 18 0 17 8 -12 78 -32 79 -31 98 5 132 16
15 26 30 23 34 -11 10 -19 7 -41 -17z"/>
<path d="M2874 3830 c-40 -16 -64 -59 -64 -112 0 -43 4 -54 31 -79 32 -30 84
-45 118 -34 33 10 14 25 -30 25 -49 0 -99 43 -99 84 0 33 11 33 101 -4 40 -17
79 -28 86 -26 18 7 16 77 -3 104 -30 44 -91 62 -140 42z m75 -21 c35 -13 65
-60 56 -89 -6 -18 -10 -17 -78 12 -40 17 -74 32 -76 34 -7 6 22 36 44 44 11 5
20 9 21 9 1 1 15 -4 33 -10z"/>
<path d="M1844 3736 c-43 -19 -64 -53 -64 -104 0 -37 6 -50 34 -78 29 -29 41
-34 80 -34 36 0 52 6 81 31 19 17 35 40 35 50 0 25 -17 24 -25 -2 -8 -24 -61
-59 -91 -59 -22 0 -73 35 -64 42 3 3 40 26 82 52 70 43 76 49 65 67 -12 20
-66 49 -89 49 -7 -1 -27 -7 -44 -14z m87 -26 c10 -6 19 -15 19 -19 0 -5 -30
-28 -66 -51 -52 -33 -68 -39 -75 -28 -17 26 -3 70 30 95 20 15 66 16 92 3z"/>
<path d="M3110 3716 c0 -10 8 -16 23 -16 12 0 37 -9 55 -20 24 -15 32 -27 32
-47 0 -54 -13 -59 -66 -25 -74 50 -134 37 -134 -28 0 -36 50 -80 91 -80 22 0
29 -4 27 -16 -7 -39 20 -19 65 47 58 87 60 115 12 158 -20 17 -41 31 -48 31
-7 0 -22 3 -34 6 -17 5 -23 2 -23 -10z m38 -127 c36 -26 41 -34 30 -46 -22
-27 -57 -34 -88 -18 -39 20 -54 49 -40 75 15 29 50 25 98 -11z"/>
<path d="M2320 3700 c0 -15 5 -20 18 -18 9 2 17 10 17 18 0 8 -8 16 -17 18
-13 2 -18 -3 -18 -18z"/>
<path d="M1628 3564 c-31 -16 -58 -61 -58 -95 0 -18 -3 -19 -15 -9 -8 6 -18 9
-24 6 -9 -6 198 -216 220 -224 23 -9 5 26 -33 65 l-42 43 28 0 c43 0 96 58 96
104 0 97 -91 155 -172 110z m108 -29 c34 -23 49 -69 34 -105 -27 -64 -89 -79
-140 -32 -43 39 -49 80 -15 120 21 25 34 32 64 32 20 0 46 -7 57 -15z"/>
<path d="M3275 3518 c-41 -32 -59 -81 -45 -124 14 -41 63 -84 96 -84 32 0 31
16 -2 24 -39 10 -74 50 -74 85 0 39 44 89 86 97 42 8 94 -35 94 -77 0 -19 5
-29 15 -29 19 0 19 33 0 70 -30 59 -119 79 -170 38z"/>
<path d="M3506 3366 c5 -21 -2 -28 -52 -57 -69 -39 -94 -63 -94 -88 0 -24 39
-73 51 -65 6 4 4 13 -5 23 -32 35 -20 56 54 101 68 41 71 42 85 24 8 -11 15
-22 15 -26 0 -5 7 -8 16 -8 14 0 13 4 -4 32 l-20 31 21 18 c27 22 15 36 -17
21 -19 -9 -25 -8 -30 4 -9 24 -27 16 -20 -10z"/>
<path d="M1463 3335 c-76 -33 -93 -129 -34 -189 27 -26 39 -31 80 -31 57 0 93
26 111 81 30 91 -69 178 -157 139z m87 -30 c56 -29 68 -95 24 -139 -55 -54
-154 -14 -154 62 1 74 64 111 130 77z"/>
<path d="M3683 3233 c-8 -3 -6 -17 8 -49 10 -25 19 -49 19 -54 0 -12 -176 -80
-209 -80 -39 0 -54 21 -49 70 4 45 -17 57 -28 15 -15 -58 24 -115 79 -115 17
0 80 20 138 43 l107 42 -27 66 c-15 38 -31 64 -38 62z"/>
<path d="M1232 3118 c6 -16 291 -117 302 -107 5 5 7 11 5 14 -8 8 -282 105
-297 105 -8 0 -12 -5 -10 -12z"/>
<path d="M1321 2966 c-68 -37 -68 -150 -1 -189 35 -21 99 -22 128 -1 45 31 66
109 41 155 -15 29 -30 14 -18 -18 19 -51 -13 -111 -68 -128 -28 -8 -29 0 -8
108 8 43 15 81 15 83 0 10 -67 2 -89 -10z m59 -27 c0 -41 -23 -149 -32 -149
-20 0 -58 51 -58 77 0 34 24 71 54 83 32 13 36 12 36 -11z"/>
<path d="M3661 2955 c-12 -16 -22 -49 -26 -90 -8 -74 -29 -101 -70 -91 -33 9
-47 46 -43 118 4 68 -6 82 -22 33 -32 -97 28 -200 105 -181 31 8 55 57 55 110
0 72 26 104 74 92 31 -8 50 -55 43 -112 -3 -31 -1 -44 7 -41 6 2 12 30 14 64
3 53 0 64 -23 92 -35 41 -84 43 -114 6z"/>
<path d="M1250 2716 c0 -8 40 -29 100 -51 54 -21 98 -41 96 -44 -2 -3 -45 -26
-95 -51 -50 -24 -91 -50 -91 -57 0 -8 41 8 111 42 129 65 134 77 44 111 -33
12 -84 31 -112 43 -41 16 -53 18 -53 7z"/>
<path d="M3510 2590 c-13 -8 -13 -11 1 -25 13 -14 17 -14 27 -2 16 19 -7 40
-28 27z"/>
<path d="M1454 2479 c-4 -6 0 -16 9 -20 21 -12 39 -71 31 -104 -6 -23 -50 -64
-58 -54 -1 2 -13 43 -26 92 -24 93 -35 103 -76 69 -116 -94 17 -258 142 -176
26 18 44 56 44 95 0 52 -49 125 -66 98z m-58 -109 l22 -80 -24 0 c-39 0 -78
42 -78 83 0 36 26 77 48 77 6 0 21 -36 32 -80z"/>
<path d="M3470 2386 c0 -9 24 -24 59 -37 l60 -21 -29 -79 c-22 -58 -26 -79
-16 -79 7 0 25 32 41 75 l27 74 51 -20 c28 -11 54 -22 58 -25 4 -2 -6 -38 -22
-80 -32 -83 -35 -98 -17 -92 15 5 81 179 71 189 -7 7 -269 109 -279 109 -2 0
-4 -7 -4 -14z"/>
<path d="M1418 2186 c-143 -81 -142 -81 -134 -95 4 -6 31 4 67 25 l61 34 -7
-30 c-14 -62 45 -130 112 -130 42 0 92 36 109 77 14 33 14 40 -1 81 -14 34
-26 47 -53 59 -31 13 -33 16 -19 24 20 12 23 29 5 28 -7 0 -70 -33 -140 -73z
m163 -15 c39 -40 39 -82 0 -122 -50 -49 -121 -37 -147 26 -16 38 -8 70 22 96
43 38 87 37 125 0z"/>
<path d="M3370 2156 c0 -15 185 -128 194 -118 3 3 6 9 6 13 0 6 -185 119 -196
119 -2 0 -4 -6 -4 -14z"/>
<path d="M3239 2107 c-74 -50 -96 -121 -51 -170 49 -55 173 -158 182 -152 8 5
6 13 -6 26 -16 18 -16 19 10 19 18 0 40 12 62 34 29 29 34 41 34 79 0 140
-196 150 -219 11 l-6 -36 -27 27 c-16 15 -28 37 -28 49 0 34 35 81 74 100 36
17 48 36 22 36 -7 0 -28 -10 -47 -23z m160 -92 c39 -20 57 -66 41 -105 -38
-92 -170 -72 -170 25 0 27 8 44 29 66 33 32 58 36 100 14z"/>
<path d="M3612 2003 c2 -10 10 -18 18 -18 8 0 16 8 18 18 2 12 -3 17 -18 17
-15 0 -20 -5 -18 -17z"/>
<path d="M1734 1929 c-62 -17 -100 -87 -80 -149 13 -41 70 -83 103 -77 13 2
23 2 23 0 0 -3 -19 -27 -41 -55 -28 -33 -39 -52 -32 -59 7 -7 44 30 112 111
55 67 101 126 101 130 0 16 -18 20 -24 5 -9 -24 -26 -17 -26 9 0 55 -74 101
-136 85z m70 -30 c14 -7 32 -27 41 -45 47 -100 -110 -182 -160 -83 -23 43 -18
68 19 105 36 36 59 41 100 23z"/>
<path d="M3140 1874 c0 -3 16 -34 35 -68 41 -73 44 -105 13 -133 -56 -49 -89
-35 -143 61 -24 43 -41 63 -50 60 -10 -4 -5 -21 23 -67 43 -74 47 -121 13
-148 -13 -11 -36 -19 -52 -19 -30 0 -56 27 -99 108 -24 42 -31 48 -43 35 -10
-9 51 -114 86 -147 25 -24 36 -27 66 -22 36 5 91 53 91 79 0 9 10 12 30 9 43
-6 88 16 106 51 12 21 19 26 27 18 13 -13 27 -14 27 -2 0 20 -105 191 -117
191 -7 0 -13 -3 -13 -6z"/>
<path d="M1960 1764 c0 -10 6 -13 19 -9 47 15 111 -37 111 -90 0 -19 -2 -35
-5 -35 -3 0 -42 18 -87 41 -77 39 -83 40 -95 23 -46 -63 37 -166 122 -150 35
7 78 49 90 87 22 69 -44 149 -124 149 -22 0 -31 -5 -31 -16z m48 -119 c64 -28
76 -47 43 -65 -59 -31 -131 6 -131 68 0 23 4 33 13 29 6 -3 40 -17 75 -32z"/>
<path d="M2700 1683 c-8 -3 -25 -15 -37 -26 -20 -18 -23 -18 -23 -4 0 9 -7 17
-15 17 -11 0 -14 -7 -10 -22 3 -13 9 -45 15 -73 16 -77 29 -102 60 -115 34
-14 98 1 123 28 25 27 10 33 -26 11 -56 -33 -117 -17 -117 31 0 14 10 20 43
25 73 13 97 31 97 77 0 44 -57 70 -110 51z m72 -30 c10 -9 18 -22 18 -29 0
-20 -39 -42 -86 -50 -47 -7 -61 9 -43 50 20 43 79 59 111 29z"/>
<path d="M2200 1576 c-27 -59 -59 -124 -70 -146 -18 -35 -18 -40 -5 -40 11 0
37 43 76 126 33 70 61 125 63 123 2 -2 16 -63 31 -136 18 -85 33 -134 42 -137
11 -4 31 29 75 122 69 145 63 147 99 -30 15 -77 28 -118 36 -118 17 0 18 -7
-18 168 l-32 152 -38 0 c-40 0 -54 -20 -25 -37 11 -6 3 -29 -39 -112 l-52
-105 -16 75 c-9 41 -22 101 -29 134 -21 95 -39 88 -98 -39z"/>
</g>
</svg>
